# xmcd
#
# Track frame offsets: 
#        150
#        12652
#        22885
#        38892
#        49940
#        60177
#        73390
#        87240
#        99742
#        115120
#        127885
#        140802
#        150885
#        166467
#        183542
#
# Disc length: 2648 seconds
#
# Revision: 0
# Processed by: cddbd v1.5.2PL0 Copyright (c) Steve Scherf et al.
# Submitted via: ExactAudioCopy v0.95b3
#
DISCID=c80a560f
DTITLE=Sly and The Family Stone  - Life  FLAC
DYEAR=1900
DGENRE=
TTITLE0=Dynamite!
TTITLE1=Chicken
TTITLE2=Plastic Jim
TTITLE3=Fun
TTITLE4=Into My Own Thing
TTITLE5=Harmony
TTITLE6=Life
TTITLE7=Love City
TTITLE8=I'm An Animal
TTITLE9=M'Lady
TTITLE10=Jane Is A Groupee
TTITLE11=Dynamite
TTITLE12=Seven More Days
TTITLE13=Pressure
TTITLE14=Sorrow
EXTD=
EXTT0=
EXTT1=
EXTT2=
EXTT3=
EXTT4=
EXTT5=
EXTT6=
EXTT7=
EXTT8=
EXTT9=
EXTT10=
EXTT11=
EXTT12=
EXTT13=
EXTT14=
PLAYORDER=
